<svg xmlns="http://www.w3.org/2000/svg" viewBox="0 0 100 100">
    <defs>
        <style>.a{fill:#0e6eb8;}.b{fill:#1933b2;}.c{fill:#fff;}</style>
    </defs>
    <title>Asset 2</title>
    <polygon class="a" points="100 0 0 0 0 72.83 27.17 100 100 100 100 0"/>
    <polygon class="b" points="27.17 72.83 27.17 100 0 72.83 27.17 72.83"/>
    <rect class="c" x="34.75" y="21.75" width="30.5" height="8.85" rx="4.43" ry="4.43"/>
    <rect class="c" x="38.93" y="30.6" width="22.14" height="17.74"/>
    <path class="c"
          d="M40.79,48H59.21A10.46,10.46,0,0,1,69.68,58.43v0a2.33,2.33,0,0,1-2.33,2.33H32.65a2.33,2.33,0,0,1-2.33-2.33v0A10.46,10.46,0,0,1,40.79,48Z"/>
    <path class="c" d="M51,77.36l2.56-25.79a1,1,0,0,0-1-1.1H47.44a1,1,0,0,0-1,1.1L49,77.36A1,1,0,0,0,51,77.36Z"/>
    <rect class="a" x="42.5" y="30.62" width="1.97" height="17.71" rx="0.98" ry="0.98"/>
</svg>